<svg xmlns="http://www.w3.org/2000/svg" id="194987802" viewBox="0 0 506.25 506.25" height="506.25" width="506.25">
  <defs id="SvgjsDefs1214"/>
  <g id="SvgjsG1215" featurekey="rootContainer" transform="matrix(10.125,0,0,10.125,0,0)" fill="#121212">
    <circle cx="25" cy="25" r="25"/>
  </g>
  <g id="SvgjsG1216" featurekey="UFHKJ9-0" transform="matrix(1.7962578532405815,0,0,1.7962578532405815,161.98960324450718,83.25813560749572)" fill="#ff4a9a">
    <path xmlns="http://www.w3.org/2000/svg" d="M89.9395142,47.5261612c-3.7366638,18.2685776-19.9030838,32.0092392-39.2736893,32.0092392  c-19.3689251,0-35.5285912-13.7406616-39.271656-32.0092392c-0.5273972,2.6113396-0.8108349,5.3151321-0.8108349,8.0796661  c0,22.1405411,17.9456596,40.0841751,40.0824928,40.0841751c22.138855,0,40.0841751-17.943634,40.0841751-40.0841751  C90.75,52.8412933,90.4733124,50.1375008,89.9395142,47.5261612"/>
    <path xmlns="http://www.w3.org/2000/svg" d="M32.2457428,14.7985439c-1.8055687,1.1860523-3.5058575,2.5752354-5.0941219,4.1601257  c-12.6733799,12.6764164-12.6733799,33.2286911,0,45.9034195c6.3399067,6.3382111,14.64361,9.5066452,22.9540768,9.5066452  c8.308773,0,16.6158676-3.1684341,22.9527206-9.5066452c1.5848923-1.5831985,2.9686737-3.2936096,4.1550674-5.0944519  c-5.3974686,3.5655785-11.6287155,5.3481979-17.8599586,5.3481979c-8.3054008,0-16.6158638-3.1667404-22.9523849-9.5049515  C25.3129883,44.5210457,23.9288769,27.3993797,32.2457428,14.7985439"/>
    <path xmlns="http://www.w3.org/2000/svg" d="M59.3076401,4.3099961C44.57967,4.3116832,32.5126457,16.1182175,32.2622757,30.9035473  C32.0054932,45.8488159,43.9041443,58.16959,58.852787,58.41996c0.161293,0.0033722,0.3195457,0.0067482,0.4811707,0.0067482  c1.7002907,0,3.3675117-0.1582527,4.9756813-0.4599113C40.8727112,30.0863018,65.2257538,4.9592037,65.2257538,4.9592037  c-1.7532654-0.3920889-3.575367-0.61479-5.4436951-0.6458335C59.623806,4.3116832,59.4655533,4.3099961,59.3076401,4.3099961"/>
  </g>
  <g id="SvgjsG1217" featurekey="XAPJzK-0" transform="matrix(4.487779658071812,0,0,4.487779658071812,146.7171091206815,248.20795638288493)" fill="#ffffff">
    <path d="M8.74 6.42 l0 12.74 c0 1 -1.92 1.02 -2.12 0.52 l-3 -7.36 l0 7.24 c0 0.6 -2.22 0.6 -2.22 0 l0 -12.5 c0 -1.56 1.94 -1.1 2.2 -0.54 l2.94 7.08 l0 -7.18 c0 -0.6 2.2 -0.6 2.2 0 z M13.82 17.72 l2.86 0 c0.6 0 0.6 2.28 0 2.28 l-3.86 0 c-1.28 0 -1.28 0 -1.28 -1.08 l0 -11.84 c0 -1.08 0 -1.08 1.22 -1.1 l3.9 0.02 c0.6 0 0.6 2.28 0 2.28 l-2.84 0 l0 3.64 l2 0 c0.6 0 0.6 2.3 0 2.3 l-2 0 l0 3.5 z M23.099999999999998 10.06 l1.4 -3.86 c0.18 -0.48 2.44 0.02 2.14 0.84 l-2.3 6.16 l2.14 5.78 c0.3 0.84 -1.94 1.32 -2.12 0.84 l-1.26 -3.5 l-1.24 3.5 c-0.18 0.46 -2.48 0.04 -2.14 -0.84 l2.14 -5.78 l-2.28 -6.14 c-0.34 -0.92 1.94 -1.42 2.14 -0.84 z M36.86 6.4399999999999995 l0 8.6 c0 6.6 -7.8 6.64 -7.8 -0.02 l0 -8.6 c0 -0.56 2.28 -0.56 2.28 0 l0 8.6 c0 3.66 3.24 3.68 3.24 0.02 l0 -8.6 c0 -0.6 2.28 -0.6 2.28 0 z M45.96 16.42 c0.04 0.68 -0.14 1.44 -0.52 2 c-0.18 0.26 -0.38 0.52 -0.64 0.74 c-0.16 0.12 -0.32 0.26 -0.5 0.36 s-0.38 0.18 -0.56 0.26 c-0.6 0.26 -1.32 0.28 -1.94 0.12 c-0.32 -0.08 -0.62 -0.2 -0.9 -0.38 c-0.26 -0.16 -0.54 -0.36 -0.74 -0.6 c-0.22 -0.24 -0.42 -0.5 -0.56 -0.8 c-0.08 -0.18 -0.18 -0.38 -0.24 -0.58 c-0.04 -0.2 -0.1 -0.72 -0.1 -0.92 c0 -0.6 2.24 -0.6 2.24 0 c0 0.5 0.78 1.84 1.98 0.64 c0.5 -0.72 0.04 -1.54 -0.4 -2.14 c-0.68 -0.84 -1.56 -1.48 -2.28 -2.28 c-0.42 -0.46 -0.84 -0.98 -1.1 -1.56 c-0.14 -0.32 -0.26 -0.64 -0.34 -1 c-0.3 -1.66 0.22 -4.62 3.84 -4.28 c1.82 0.18 2.62 1.74 2.62 2.8 c0 0.6 -2.28 0.6 -2.28 0 c0 -0.8 -2.26 -0.9 -1.98 0.86 c0.04 0.18 0.08 0.36 0.16 0.54 c0.12 0.26 0.26 0.48 0.42 0.7 c0.2 0.26 0.4 0.48 0.64 0.7 c0.88 0.86 1.88 1.64 2.52 2.74 c0.38 0.64 0.6 1.34 0.66 2.08 z"/>
  </g>
  <g id="SvgjsG1218" featurekey="XAPJzK-1" transform="matrix(4.7996162416213055,0,0,4.7996162416213055,146.28053909263846,319.3462920445204)" fill="#ffffff">
    <path d="M7.02 6.42 c1.36 0.86 1.78 2.38 1.76 3.92 c-0.02 1.28 -0.2 2.56 -1.46 3.5 c-1.06 0.82 -2.38 0.64 -3.64 0.64 l0 5.08 c0 0.6 -2.28 0.6 -2.28 0 l0 -12.3 c0 -0.94 0.02 -1.24 1.42 -1.26 l2.06 0 c0.72 0 1.52 0.02 2.14 0.42 z M6.5 10.76 c0.02 -0.22 0.02 -1.02 -0.02 -1.4 c-0.08 -0.74 -0.36 -1.12 -1.28 -1.12 l-1.52 0 l0 3.96 l1.72 0 c0.92 0 1.06 -1.12 1.1 -1.44 z M17.34 17.46 c-0.36 1.54 -1.44 2.54 -3.14 2.54 l-0.52 0 c-1.68 0 -2.76 -1 -3.14 -2.54 c-0.02 -0.12 -0.08 -8.56 -0.06 -8.64 c0.28 -1.68 1.32 -2.78 3.2 -2.82 l0.52 0 c1.9 0.04 2.92 1.14 3.2 2.82 c0.02 0.08 -0.02 8.5 -0.06 8.64 z M15.2 16.14 l0 -6.26 c0 -0.48 -0.12 -1.18 -0.7 -1.46 c-0.34 -0.18 -0.78 -0.18 -1.12 0 c-0.58 0.28 -0.7 0.98 -0.7 1.46 l0 6.26 c0.02 0.48 0.12 1.18 0.7 1.46 c0.34 0.18 0.78 0.18 1.12 0 c0.58 -0.28 0.68 -0.98 0.7 -1.46 z M22.08 6.42 l0 13.14 c0 0.6 -2.28 0.6 -2.28 0 l0 -13.14 c0 -0.6 2.28 -0.6 2.28 0 z M32.22 6.42 l0 12.74 c0 1 -1.92 1.02 -2.12 0.52 l-3 -7.36 l0 7.24 c0 0.6 -2.22 0.6 -2.22 0 l0 -12.5 c0 -1.56 1.94 -1.1 2.2 -0.54 l2.94 7.08 l0 -7.18 c0 -0.6 2.2 -0.6 2.2 0 z M34.66 6 l7.96 0 c0.6 0 0.6 2.24 0 2.24 l-2.84 0.04 l0 11.28 c0 0.6 -2.28 0.6 -2.28 0 l0 -11.28 l-2.84 -0.04 c-0.6 0 -0.6 -2.24 0 -2.24 z"/>
  </g>
</svg>
